<svg xmlns="http://www.w3.org/2000/svg" width="1024" height="1024" viewBox="0 0 1024 1024">
<g>

<path d="M 338.54 782.86 C311.06,782.34 288.37,781.71 288.12,781.46 C287.87,781.20 287.92,780.74 288.24,780.43 C288.56,780.11 357.14,779.60 440.66,779.28 C591.10,778.72 736.00,779.55 736.00,780.98 C736.00,781.39 722.39,782.01 705.75,782.36 C652.45,783.49 390.24,783.85 338.54,782.86 ZM 118.02 720.75 C118.03,720.06 119.47,718.83 121.21,718.00 C122.95,717.17 125.31,715.23 126.44,713.68 C128.45,710.92 128.50,709.72 128.50,666.03 C128.50,622.62 128.44,621.14 126.50,618.97 C125.40,617.73 123.04,616.11 121.25,615.35 C114.88,612.65 117.71,612.00 136.75,611.78 C170.92,611.37 178.58,612.20 188.73,617.38 C194.39,620.27 197.93,623.88 201.12,630.00 C204.35,636.20 204.45,648.37 201.32,655.18 C194.60,669.82 177.63,678.00 153.96,678.00 L 144.83 678.00 L 145.16 694.43 C145.56,713.62 146.24,715.35 154.55,718.15 C164.03,721.34 161.39,722.00 139.08,722.00 C122.87,722.00 118.00,721.71 118.02,720.75 ZM 171.79 668.36 C181.84,663.33 186.17,653.66 184.71,639.52 C184.42,636.62 183.28,632.51 182.18,630.38 C177.78,621.79 171.97,619.08 156.25,618.28 L 145.00 617.70 L 145.00 644.99 L 145.00 672.29 L 155.54 671.75 C164.48,671.29 166.94,670.78 171.79,668.36 ZM 230.04 720.75 C230.06,720.06 231.97,718.60 234.29,717.50 C236.60,716.40 239.06,714.38 239.74,713.00 C240.66,711.13 240.97,699.49 240.98,667.00 C240.99,625.12 240.92,623.38 238.97,620.19 C237.86,618.37 235.39,616.23 233.48,615.43 C225.98,612.29 229.34,611.85 257.75,612.24 C288.91,612.68 293.48,613.42 302.80,619.58 C309.02,623.69 313.44,630.13 315.08,637.46 C316.63,644.40 314.39,652.45 309.36,658.02 C306.07,661.67 293.42,669.00 290.42,669.00 C289.71,669.00 288.86,669.42 288.54,669.94 C287.66,671.36 313.35,706.78 319.57,712.73 C322.58,715.60 326.47,718.32 328.20,718.77 C329.94,719.22 331.54,720.13 331.77,720.80 C332.07,721.70 328.75,722.00 318.67,722.00 L 305.17 722.00 L 301.13 716.93 C298.91,714.14 291.56,703.35 284.80,692.95 L 272.50 674.04 L 265.25 674.02 L 258.00 674.00 L 258.00 692.25 C258.01,712.89 258.66,715.18 265.38,718.38 C267.37,719.32 269.00,720.52 269.00,721.05 C269.00,721.62 261.19,722.00 249.50,722.00 C234.55,722.00 230.01,721.71 230.04,720.75 ZM 280.37 665.29 C295.42,660.56 301.30,638.38 290.70,626.31 C285.89,620.83 280.42,618.86 268.34,618.24 L 258.00 617.71 L 258.00 642.29 L 258.00 666.87 L 261.25 667.27 C266.31,667.87 275.01,666.98 280.37,665.29 ZM 355.01 720.75 C355.02,720.06 356.77,718.77 358.91,717.87 C366.72,714.59 366.50,716.09 366.50,666.87 C366.50,624.27 366.45,623.07 364.44,620.32 C363.30,618.77 360.71,616.68 358.69,615.67 C356.66,614.66 355.00,613.44 355.00,612.96 C355.00,612.32 399.58,611.50 434.61,611.50 C434.67,611.50 435.00,617.46 435.33,624.75 C436.03,640.14 435.15,641.47 430.13,632.58 C426.60,626.32 421.90,622.38 415.80,620.54 C413.43,619.83 405.09,618.92 397.25,618.51 L 383.00 617.78 L 383.00 639.39 L 383.00 661.00 L 395.26 661.00 C412.72,661.00 416.67,659.42 421.18,650.63 C422.42,648.20 423.51,647.11 424.11,647.71 C424.65,648.25 424.93,655.67 424.78,664.99 C424.48,682.38 423.60,685.18 420.50,678.65 C416.86,670.98 411.94,669.10 395.25,669.04 L 383.00 669.00 L 383.00 692.12 L 383.00 715.24 L 398.75 714.73 C407.41,714.45 416.18,713.70 418.22,713.07 C423.88,711.32 430.14,706.03 433.72,699.96 C435.49,696.96 437.32,693.86 437.78,693.07 C438.25,692.29 439.06,691.92 439.58,692.24 C440.42,692.76 438.88,712.30 437.41,719.75 L 436.96 722.00 L 395.98 722.00 C363.86,722.00 355.00,721.73 355.01,720.75 ZM 462.00 721.01 C462.00,720.46 464.04,719.05 466.54,717.88 C471.99,715.31 473.62,712.49 474.93,703.35 C476.27,693.96 479.50,644.56 479.50,633.50 C479.50,622.77 477.89,619.28 471.31,615.79 C468.94,614.53 467.13,613.12 467.29,612.64 C467.62,611.63 495.21,611.78 496.12,612.80 C496.47,613.19 501.28,624.08 506.82,637.00 C522.49,673.57 532.73,697.06 533.21,697.55 C533.45,697.79 537.58,688.43 542.38,676.74 C547.17,665.06 555.24,645.62 560.30,633.54 L 569.51 611.58 L 583.35 611.54 C590.96,611.52 597.40,611.83 597.65,612.24 C597.90,612.65 595.60,614.08 592.55,615.44 C588.56,617.20 586.68,618.68 585.90,620.70 C584.75,623.67 584.74,623.57 588.03,672.50 C590.76,713.04 590.57,711.77 594.50,715.70 C596.31,717.51 598.74,719.00 599.90,719.00 C601.10,719.00 602.00,719.64 602.00,720.50 C602.00,721.78 599.11,722.00 582.00,722.00 C565.70,722.00 562.00,721.75 562.00,720.62 C562.00,719.87 563.36,718.98 565.03,718.64 C566.69,718.31 569.13,716.96 570.44,715.65 C574.31,711.78 575.01,707.22 573.99,692.62 C573.48,685.40 572.35,668.92 571.49,656.00 C570.62,643.08 569.79,632.09 569.65,631.58 C569.50,631.08 567.52,635.13 565.24,640.58 C562.96,646.04 556.77,660.85 551.49,673.50 C536.83,708.60 530.90,721.13 529.10,720.78 C527.64,720.50 513.37,690.81 495.80,651.50 C491.87,642.70 488.28,635.07 487.83,634.55 C487.36,634.02 487.00,634.90 486.99,636.55 C486.99,638.17 486.27,651.20 485.40,665.50 C484.53,679.80 483.77,695.83 483.71,701.13 C483.59,712.11 484.77,714.97 490.55,717.72 C492.45,718.63 494.00,719.96 494.00,720.69 C494.00,721.72 490.55,722.00 478.00,722.00 C468.05,722.00 462.00,721.62 462.00,721.01 ZM 626.00 721.08 C626.00,720.58 627.66,719.34 629.69,718.33 C631.71,717.32 634.30,715.23 635.44,713.68 C637.43,710.95 637.51,709.49 637.78,668.39 C638.05,628.53 637.95,625.67 636.17,621.64 C634.82,618.61 633.21,616.85 630.63,615.63 C628.64,614.68 627.00,613.48 627.00,612.95 C627.00,612.38 634.62,612.00 646.00,612.00 C656.45,612.00 665.00,612.40 665.00,612.88 C665.00,613.36 663.69,614.30 662.10,614.96 C660.50,615.62 658.14,617.29 656.85,618.66 L 654.50 621.16 L 654.50 665.87 C654.50,715.80 654.29,714.26 661.55,717.72 C663.45,718.63 665.00,719.96 665.00,720.69 C665.00,721.73 660.95,722.00 645.50,722.00 C634.33,722.00 626.00,721.61 626.00,721.08 ZM 692.00 720.75 C692.00,720.06 693.66,718.60 695.67,717.50 C697.69,716.40 700.27,714.23 701.42,712.68 C703.43,709.94 703.51,708.58 703.79,668.94 C703.99,641.55 703.72,626.68 702.99,623.96 C701.67,619.05 698.96,616.14 694.97,615.34 C693.34,615.02 692.00,614.13 692.00,613.38 C692.00,612.23 698.42,611.99 729.75,611.93 C750.51,611.88 768.51,611.66 769.75,611.43 C771.97,611.02 772.00,611.14 772.01,622.26 C772.02,628.44 772.30,634.51 772.63,635.75 C773.11,637.54 772.82,638.00 771.23,638.00 C769.96,638.00 769.00,637.14 768.64,635.69 C767.51,631.21 762.08,625.07 756.92,622.46 C752.92,620.43 749.45,619.68 740.67,618.96 C734.52,618.45 727.36,618.03 724.75,618.02 L 720.00 618.00 L 720.00 639.50 L 720.00 661.00 L 732.79 661.00 C744.06,661.00 746.10,660.73 750.04,658.75 C753.30,657.11 755.04,655.37 756.50,652.29 C760.25,644.38 761.00,646.48 761.00,665.00 C761.00,678.78 760.74,682.00 759.62,682.00 C758.86,682.00 757.68,680.64 756.99,678.98 C755.37,675.05 750.89,671.34 746.22,670.04 C744.17,669.48 737.44,669.01 731.25,669.01 L 720.00 669.00 L 720.00 692.00 L 720.00 715.00 L 731.82 715.00 C745.01,715.00 753.66,713.72 759.04,710.98 C763.71,708.59 769.71,701.90 772.19,696.31 C773.26,693.88 774.68,692.06 775.32,692.27 C776.73,692.74 776.76,691.37 775.03,708.25 L 773.63 722.00 L 732.82 722.00 C700.83,722.00 692.00,721.73 692.00,720.75 ZM 803.00 720.75 C803.01,720.06 805.08,718.65 807.62,717.60 C815.24,714.47 815.12,715.30 814.79,665.64 C814.47,617.39 814.62,618.41 807.42,615.40 C805.54,614.62 804.00,613.53 804.00,612.99 C804.00,611.62 852.01,611.70 859.46,613.08 C876.85,616.29 887.62,626.41 888.76,640.60 C889.17,645.75 888.84,647.68 886.71,652.31 C883.35,659.67 877.69,663.83 863.23,669.60 C861.07,670.46 861.66,671.45 876.08,691.31 C891.61,712.71 895.88,717.08 903.15,719.04 C910.51,721.02 907.19,722.00 893.10,722.00 L 879.21 722.00 L 875.91 718.25 C874.09,716.19 866.62,705.39 859.31,694.25 L 846.01 674.00 L 839.00 674.00 L 832.00 674.00 L 832.00 692.78 C832.00,713.84 832.19,714.53 839.07,718.03 C841.23,719.14 843.00,720.48 843.00,721.02 C843.00,721.63 835.39,722.00 823.00,722.00 C807.66,722.00 803.00,721.71 803.00,720.75 ZM 853.00 665.79 C865.53,662.08 871.99,649.88 869.01,635.53 C866.62,624.01 859.03,619.09 842.34,618.24 L 832.00 617.71 L 832.00 642.30 L 832.00 666.89 L 836.25 667.19 C842.01,667.61 848.77,667.04 853.00,665.79 ZM 431.25 566.60 C425.34,564.67 417.65,559.54 414.51,555.43 C413.06,553.53 410.67,549.39 409.19,546.24 C406.86,541.27 406.50,539.22 406.50,530.98 C406.50,522.25 406.77,520.90 409.76,514.84 C413.68,506.88 418.97,501.86 427.88,497.64 C433.94,494.77 435.35,494.50 444.50,494.51 C453.48,494.52 455.04,494.80 459.78,497.29 C467.09,501.13 472.63,507.00 476.35,514.85 C479.22,520.93 479.50,522.36 479.50,531.50 C479.50,540.40 479.20,542.12 476.74,547.12 C473.31,554.10 465.74,561.31 458.22,564.77 C451.29,567.95 438.14,568.84 431.25,566.60 ZM 456.65 559.85 C464.73,554.50 469.08,540.97 467.01,527.58 C464.99,514.54 459.27,505.43 450.54,501.37 C437.90,495.48 424.56,501.72 420.47,515.43 C418.35,522.53 418.59,534.47 421.01,542.30 C423.37,549.95 430.15,558.22 436.48,561.18 C442.26,563.89 451.46,563.28 456.65,559.85 ZM 312.00 565.90 C312.00,565.38 313.08,564.47 314.39,563.87 C318.66,561.92 319.00,559.48 319.00,530.35 L 319.00 502.80 L 315.50 499.30 C313.58,497.38 312.00,495.62 312.00,495.40 C312.00,495.18 318.08,495.00 325.50,495.00 C338.11,495.00 342.37,495.94 336.47,497.42 C335.09,497.77 333.06,498.94 331.97,500.03 C330.22,501.78 330.00,503.39 330.00,514.50 L 330.00 527.00 L 347.50 527.00 L 365.00 527.00 L 365.00 515.57 C365.00,502.29 364.29,499.78 360.08,498.03 C358.39,497.33 357.00,496.36 357.00,495.88 C357.00,495.40 362.85,495.00 370.00,495.00 C383.02,495.00 385.71,495.81 380.55,498.16 C379.20,498.77 377.63,500.63 377.05,502.29 C375.71,506.14 375.64,555.93 376.98,559.43 C377.51,560.84 379.31,562.83 380.97,563.84 C382.63,564.85 383.69,565.97 383.33,566.34 C382.27,567.39 358.18,567.11 357.52,566.03 C357.19,565.50 358.07,564.77 359.48,564.42 C364.28,563.21 365.00,560.79 365.00,545.78 L 365.00 532.00 L 347.50 532.00 L 330.00 532.00 L 330.00 546.35 C330.00,561.77 330.32,562.80 335.75,564.45 C341.19,566.11 337.24,567.02 325.00,566.93 C317.59,566.88 312.00,566.44 312.00,565.90 ZM 515.00 566.15 C515.00,565.65 516.37,564.68 518.04,563.98 C519.71,563.29 521.51,561.92 522.04,560.93 C522.59,559.89 523.00,546.58 523.00,529.57 L 523.00 500.00 L 517.57 500.00 C508.61,500.00 503.25,503.09 500.40,509.90 C499.62,511.78 498.71,513.04 498.39,512.72 C498.07,512.40 498.13,508.29 498.52,503.57 L 499.24 495.00 L 528.51 495.00 C554.28,495.00 557.86,495.19 558.39,496.58 C559.27,498.86 559.14,513.01 558.25,512.96 C557.84,512.94 556.60,511.05 555.50,508.77 C552.53,502.59 549.22,500.63 540.91,500.16 L 533.89 499.77 L 534.19 529.73 C534.53,562.22 534.54,562.31 540.13,563.75 C546.79,565.48 543.09,566.51 529.25,566.78 C521.20,566.93 515.00,566.66 515.00,566.15 ZM 582.73 566.40 C582.40,566.07 583.90,564.11 586.06,562.05 L 590.00 558.31 L 589.90 531.90 C589.85,517.38 589.49,504.38 589.11,503.00 C588.73,501.62 586.99,499.60 585.25,498.50 C583.50,497.40 582.06,496.16 582.04,495.75 C582.02,495.34 594.15,495.00 609.00,495.00 L 636.00 495.00 L 636.00 504.00 C636.00,513.29 635.12,515.12 633.05,510.12 C630.01,502.78 623.64,500.01 609.75,500.01 L 601.00 500.00 L 601.00 513.37 L 601.00 526.75 L 610.25 526.26 C620.16,525.75 623.36,524.50 625.21,520.45 C627.32,515.81 628.00,518.03 628.00,529.50 C628.00,536.50 627.61,541.00 627.00,541.00 C626.45,541.00 626.00,540.29 626.00,539.42 C626.00,538.56 624.68,536.53 623.08,534.92 C620.25,532.10 619.83,532.00 610.58,532.00 L 601.00 532.00 L 601.00 547.00 L 601.00 562.00 L 608.95 562.00 C624.26,562.00 631.54,558.74 636.08,549.84 C637.16,547.73 638.32,546.00 638.66,546.00 C639.34,546.00 638.28,561.03 637.35,564.75 L 636.78 567.00 L 610.06 567.00 C595.36,567.00 583.06,566.73 582.73,566.40 ZM 662.00 566.12 C662.00,565.64 663.32,564.70 664.94,564.03 C666.74,563.28 668.28,561.63 668.94,559.76 C669.59,557.88 670.00,546.10 670.00,529.31 L 670.00 501.91 L 667.55 499.45 C666.20,498.10 664.62,497.00 664.05,497.00 C663.47,497.00 663.00,496.55 663.00,496.00 C663.00,495.38 668.00,495.00 676.00,495.00 C683.15,495.00 689.00,495.40 689.00,495.88 C689.00,496.36 687.61,497.33 685.92,498.03 C684.22,498.74 682.42,500.40 681.92,501.72 C681.41,503.05 681.00,517.21 681.00,533.19 L 681.00 562.24 L 689.82 561.82 C701.43,561.27 706.41,558.56 710.60,550.55 C713.86,544.32 715.50,543.39 714.66,548.25 C714.36,550.04 713.82,554.20 713.47,557.50 C712.36,568.02 715.21,567.00 686.93,567.00 C673.22,567.00 662.00,566.60 662.00,566.12 ZM 513.12 452.52 C509.61,451.72 506.55,450.88 506.31,450.64 C506.07,450.41 503.54,450.83 500.69,451.59 C495.11,453.08 483.76,453.35 480.50,452.08 C479.14,451.55 480.90,451.12 486.00,450.73 C490.12,450.42 495.30,449.62 497.50,448.96 L 501.50 447.76 L 499.05 446.13 C497.71,445.23 495.68,443.73 494.55,442.78 C492.56,441.12 492.60,441.09 495.86,442.00 C497.71,442.51 499.51,442.86 499.86,442.79 C500.21,442.71 501.69,443.23 503.14,443.94 C505.49,445.08 506.19,444.94 509.52,442.68 C511.58,441.28 517.82,435.90 523.39,430.72 C534.87,420.04 538.66,417.72 544.84,417.59 C549.98,417.48 553.00,420.34 553.00,425.33 C553.00,428.43 552.99,428.44 551.44,426.22 C547.90,421.16 538.48,424.57 526.29,435.33 C522.88,438.35 518.01,442.31 515.47,444.13 C510.86,447.44 510.86,447.45 513.47,448.15 C528.37,452.14 546.70,447.93 561.24,437.19 C564.21,435.00 571.54,427.87 577.54,421.35 C608.08,388.14 627.00,372.49 642.13,367.89 C670.24,359.35 694.94,382.15 687.47,409.74 C686.00,415.19 684.78,417.31 680.95,421.14 C666.84,435.25 641.99,429.29 642.00,411.80 C642.01,403.88 647.41,398.04 655.01,397.73 C662.87,397.42 666.55,405.42 660.79,410.29 C658.09,412.58 655.59,412.11 655.18,409.24 C654.80,406.59 654.19,406.48 651.22,408.56 C647.80,410.96 648.28,415.48 652.40,419.60 C655.27,422.47 656.51,423.00 660.33,423.00 C666.21,423.00 669.72,421.62 673.84,417.69 C684.08,407.90 683.80,391.71 673.20,380.63 C661.47,368.36 644.36,371.15 620.00,389.29 C611.14,395.89 566.03,440.09 569.87,438.41 C583.21,432.57 592.13,432.80 597.44,439.11 C600.60,442.86 600.70,446.02 597.75,448.68 C594.04,452.02 593.24,452.18 593.76,449.48 C594.11,447.64 593.42,446.26 591.02,444.02 C583.33,436.84 570.32,437.60 558.00,445.96 C549.94,451.43 543.69,453.20 531.00,453.60 C523.32,453.85 517.38,453.49 513.12,452.52 ZM 447.33 440.04 C442.31,438.84 435.15,434.18 433.53,431.06 C430.62,425.43 429.90,419.54 431.55,414.85 C436.30,401.39 453.54,396.55 460.46,406.73 C463.36,411.00 463.09,412.10 459.88,409.10 C457.14,406.55 450.49,406.26 447.22,408.56 C443.90,410.88 442.00,415.31 442.00,420.70 C442.01,426.89 444.69,431.29 450.15,434.08 C459.16,438.67 476.25,434.55 482.83,426.20 C487.23,420.61 490.57,413.36 494.53,400.83 C509.35,353.96 513.24,344.01 521.77,331.16 C526.82,323.55 536.41,313.45 542.44,309.39 L 547.39 306.06 L 543.50 304.44 C531.19,299.29 507.55,298.58 495.00,302.97 C470.05,311.70 451.84,331.80 450.29,352.32 C449.62,361.27 451.85,367.26 457.45,371.53 C461.76,374.82 469.66,375.93 475.36,374.05 C480.03,372.50 487.37,364.29 489.41,358.32 C491.23,352.97 491.51,342.47 489.94,338.32 C489.35,336.77 489.28,335.95 489.79,336.50 C492.04,338.97 494.00,346.53 494.00,352.77 C494.00,375.91 468.16,391.10 452.13,377.38 C443.40,369.90 439.25,355.37 442.38,343.16 C447.86,321.75 469.68,303.16 495.50,297.88 C514.44,294.01 536.77,295.17 549.31,300.68 C552.95,302.28 553.42,302.26 559.81,300.22 C566.51,298.08 579.91,295.57 580.65,296.32 C581.46,297.13 578.30,298.73 571.50,300.96 C567.65,302.22 563.46,303.78 562.18,304.44 C559.87,305.62 559.88,305.64 564.02,308.51 C574.50,315.78 580.14,326.18 580.27,338.50 C580.39,351.10 576.15,360.74 566.35,370.08 C555.31,380.60 538.27,385.97 525.89,382.81 L 520.28 381.38 L 517.18 391.44 C513.15,404.53 508.27,412.66 498.83,422.00 C484.49,436.20 462.92,443.75 447.33,440.04 ZM 546.33 373.63 C560.75,366.57 568.93,343.98 563.64,325.84 C561.87,319.79 556.80,311.24 554.43,310.33 C552.22,309.49 544.18,317.63 539.62,325.32 C537.61,328.72 534.64,334.93 533.02,339.12 C530.29,346.19 522.00,372.59 522.00,374.22 C522.00,375.69 528.69,376.93 534.76,376.58 C538.88,376.35 542.82,375.35 546.33,373.63 ZM 353.36 428.11 C346.17,426.26 339.07,419.70 335.93,412.00 C335.08,409.91 334.50,405.07 334.50,400.00 C334.50,392.90 334.93,390.57 337.15,385.85 C340.68,378.33 346.79,372.42 354.84,368.77 C360.90,366.03 362.16,365.81 370.03,366.19 C377.39,366.54 379.74,367.13 386.47,370.33 C396.68,375.17 404.94,381.13 415.89,391.56 C422.36,397.71 424.89,400.83 425.21,403.01 C425.46,404.65 425.28,406.00 424.83,406.00 C424.37,406.00 424.00,405.62 424.00,405.16 C424.00,404.70 422.99,403.83 421.75,403.24 C420.51,402.65 414.33,398.03 408.01,392.99 C390.55,379.07 378.11,372.99 367.16,373.01 C350.98,373.04 337.21,392.30 342.41,407.63 C345.52,416.79 353.20,423.01 361.39,422.99 C367.89,422.97 371.00,421.38 373.46,416.82 C375.94,412.21 374.54,408.00 370.52,408.00 C369.13,408.00 368.05,408.34 368.12,408.75 C368.71,412.49 365.20,413.20 362.00,410.00 C357.26,405.26 361.44,397.98 368.88,398.01 C373.72,398.03 376.95,399.81 379.81,404.01 C382.84,408.48 382.52,416.02 379.10,420.66 C374.33,427.10 362.62,430.49 353.36,428.11 ZM 419.50 414.89 C412.77,409.75 408.50,408.00 402.79,408.04 C399.88,408.05 396.38,408.71 395.00,409.50 C393.62,410.29 391.88,410.95 391.13,410.96 C388.91,411.02 391.75,408.17 396.14,405.93 C404.43,401.70 414.55,405.09 422.50,414.75 C425.85,418.81 424.70,418.86 419.50,414.89 ZM 602.50 413.07 C607.08,408.14 614.95,404.02 619.85,404.01 C623.73,404.00 629.06,406.30 631.57,409.08 C634.13,411.91 632.73,412.42 628.86,410.06 C622.34,406.08 611.88,408.18 601.00,415.66 C599.41,416.75 599.96,415.80 602.50,413.07 ZM 422.00 382.80 C404.62,367.73 398.44,359.27 395.91,347.08 C392.76,331.87 401.43,316.36 413.68,315.30 C421.61,314.62 427.61,319.65 428.72,327.91 C429.18,331.39 428.86,332.29 426.20,334.95 C424.53,336.63 422.19,338.00 421.01,338.00 C417.62,338.00 415.00,336.12 415.02,333.71 C415.04,330.77 416.51,328.58 417.89,329.43 C419.77,330.59 419.15,326.44 417.17,324.65 C411.04,319.11 402.16,328.78 401.25,342.00 C400.48,353.13 405.48,362.82 420.00,378.34 C426.72,385.53 427.72,387.77 422.00,382.80 ZM 599.50 382.86 C601.15,380.86 605.55,375.71 609.28,371.42 C613.01,367.13 617.51,360.68 619.28,357.08 C622.06,351.43 622.50,349.49 622.47,343.01 C622.44,337.26 621.92,334.53 620.25,331.34 C616.15,323.56 610.09,320.91 605.94,325.06 C603.78,327.22 603.83,329.72 606.03,329.20 C606.74,329.03 607.69,329.48 608.14,330.20 C612.40,336.90 602.03,340.67 596.98,334.25 C593.22,329.46 595.39,320.56 601.19,317.03 C609.26,312.10 620.03,316.50 625.63,327.00 C627.11,329.78 627.50,332.67 627.50,341.00 C627.50,350.54 627.23,352.05 624.60,357.50 C621.68,363.55 610.76,375.33 600.97,383.00 L 596.50 386.49 L 599.50 382.86 ZM 545.45 281.55 C544.10,280.20 543.00,277.92 543.00,276.50 C543.00,273.91 546.93,269.00 549.00,269.00 C549.60,269.00 550.69,270.42 551.43,272.16 C552.71,275.21 552.80,275.25 553.88,273.23 C555.75,269.73 555.16,267.15 551.63,263.29 C548.51,259.89 547.76,259.58 541.58,259.19 C530.70,258.49 524.79,261.76 517.48,272.50 L 514.75 276.50 L 515.46 272.56 C516.35,267.58 520.09,260.16 523.15,257.31 C533.80,247.39 554.28,249.96 560.48,262.00 C564.10,269.04 563.10,278.21 558.29,281.98 C554.60,284.89 548.59,284.68 545.45,281.55 ZM 465.77 281.03 C460.01,276.50 459.50,266.72 464.69,260.18 C468.78,255.01 477.01,251.00 483.53,251.00 C492.99,251.00 500.05,254.81 504.42,262.28 C506.58,265.98 509.38,274.95 508.61,275.72 C508.46,275.88 506.65,273.55 504.59,270.56 C498.88,262.27 493.15,259.00 484.35,259.00 C475.06,259.00 469.00,262.99 469.00,269.10 C469.00,271.80 471.15,274.52 472.34,273.32 C472.70,272.96 473.00,271.84 473.00,270.83 C473.00,268.28 476.44,268.48 478.96,271.19 C480.08,272.39 481.00,274.61 481.00,276.12 C481.00,282.10 471.16,285.27 465.77,281.03 ZM 508.59 259.25 C503.58,251.02 503.78,241.87 509.16,233.43 L 512.30 228.50 L 515.65 235.48 C520.10,244.74 520.14,250.07 515.86,258.11 C514.13,261.35 512.44,264.00 512.10,264.00 C511.76,264.00 510.18,261.86 508.59,259.25 Z" fill="rgb(223,203,166)" data-index="1" style="opacity: 1;"></path>
</g>
</svg>